<?xml version="1.0" standalone="no"?>
<!DOCTYPE svg PUBLIC "-//W3C//DTD SVG 20010904//EN"
 "http://www.w3.org/TR/2001/REC-SVG-20010904/DTD/svg10.dtd">
<svg version="1.0" xmlns="http://www.w3.org/2000/svg"
 width="1024.000000pt" height="1024.000000pt" viewBox="0 0 1024.000000 1024.000000"
 preserveAspectRatio="xMidYMid meet">

<g transform="translate(0.000000,1024.000000) scale(0.100000,-0.100000)"
fill="#000000" stroke="none">
<path d="M4510 8285 c-244 -45 -494 -158 -718 -324 -117 -87 -292 -265 -374
-381 -133 -187 -232 -415 -258 -598 -17 -112 -8 -269 19 -354 22 -67 98 -193
143 -235 l24 -22 -203 -608 c-111 -335 -203 -624 -203 -643 0 -47 27 -97 71
-132 28 -23 61 -34 159 -53 272 -55 396 -69 590 -69 173 0 190 1 262 25 179
61 287 150 444 369 213 295 718 1043 871 1289 186 300 284 539 305 744 l3 28
60 -38 c232 -143 469 -379 643 -641 200 -300 354 -628 497 -1057 71 -213 292
-973 360 -1239 99 -386 54 -724 -130 -981 -55 -76 -182 -199 -262 -254 -200
-134 -409 -206 -853 -295 -416 -83 -611 -102 -995 -93 -563 12 -930 96 -1245
283 -44 26 -80 50 -80 53 1 3 15 15 32 26 35 22 53 63 44 99 -13 51 -44 73
-182 127 -155 60 -157 62 -198 189 -36 109 -46 178 -46 316 0 139 17 255 61
404 33 113 121 342 173 451 l33 68 -54 11 c-29 5 -79 15 -110 21 -32 6 -65 12
-74 15 -28 8 -137 -249 -214 -501 -51 -170 -76 -324 -76 -481 -1 -134 2 -160
27 -278 45 -211 179 -435 365 -610 296 -279 668 -412 1299 -466 l135 -12 34
-40 c87 -101 235 -142 371 -102 83 24 150 74 191 142 17 27 27 32 57 32 72 1
363 51 571 99 l124 28 42 -31 c62 -48 141 -69 233 -64 100 6 168 36 227 99 53
56 73 99 77 159 3 40 6 44 53 67 165 83 358 255 460 407 188 283 259 678 186
1031 -42 198 -257 952 -371 1295 -165 499 -304 807 -504 1115 -146 226 -382
488 -591 654 -145 116 -418 286 -552 345 -36 16 -44 24 -49 55 -27 162 -78
266 -184 372 -136 137 -305 200 -532 198 -62 0 -147 -7 -188 -14z m359 -256
c147 -33 246 -133 286 -286 68 -262 -123 -661 -462 -964 -251 -225 -537 -349
-802 -349 -296 1 -474 138 -489 376 -21 342 217 744 583 987 170 112 371 199
534 232 80 16 289 18 350 4z m-1204 -1822 c60 -17 99 -21 270 -21 177 -1 210
2 289 22 49 12 90 21 92 19 6 -5 -516 -1000 -543 -1036 -29 -37 -113 -81 -158
-81 -35 0 -413 65 -421 72 -2 3 33 113 80 244 46 132 125 358 176 504 51 146
97 276 101 289 7 17 14 21 27 16 9 -4 49 -17 87 -28z"/>
<path d="M4391 7759 c-313 -61 -660 -372 -736 -659 -20 -73 -18 -117 4 -165
40 -87 110 -125 228 -125 282 0 643 253 779 545 70 151 67 260 -9 342 -60 65
-147 85 -266 62z"/>
<path d="M4504 4861 c-18 -11 -39 -30 -48 -42 -20 -29 -21 -101 -1 -139 29
-57 47 -60 345 -60 298 0 316 3 345 60 22 43 19 112 -7 145 -40 51 -65 55
-345 55 -236 0 -261 -2 -289 -19z"/>
<path d="M6180 3264 c-63 -12 -159 -30 -213 -40 -113 -19 -152 -43 -163 -100
-12 -65 46 -144 107 -144 44 0 398 68 446 86 54 20 83 59 83 114 0 34 -6 48
-34 76 -41 41 -59 42 -226 8z"/>
</g>
</svg>
