<?xml version="1.0" standalone="no"?>
<!DOCTYPE svg PUBLIC "-//W3C//DTD SVG 20010904//EN"
 "http://www.w3.org/TR/2001/REC-SVG-20010904/DTD/svg10.dtd">
<svg version="1.0" xmlns="http://www.w3.org/2000/svg"
 width="1024.000000pt" height="1024.000000pt" viewBox="0 0 1024.000000 1024.000000"
 preserveAspectRatio="xMidYMid meet">

<g transform="translate(0.000000,1024.000000) scale(0.100000,-0.100000)"
fill="#000000" stroke="none">
<path d="M4875 8293 c-70 -4 -1183 -103 -1890 -169 -269 -25 -574 -53 -677
-63 -103 -9 -191 -20 -195 -25 -4 -4 -9 -1160 -12 -2569 l-3 -2562 238 -77
c1405 -448 2504 -798 2525 -803 24 -6 182 22 1289 225 206 38 724 132 1150
209 426 77 790 143 808 147 l32 6 0 2352 c0 1293 -3 2530 -7 2748 l-6 397 -51
5 c-28 3 -233 14 -456 26 -223 12 -463 25 -535 31 -147 10 -501 32 -900 54
-148 8 -344 19 -435 25 -91 6 -284 17 -430 25 -146 8 -292 16 -325 18 -33 2
-87 2 -120 0z m-85 -3117 l0 -2915 -57 19 c-32 11 -238 76 -458 146 -220 69
-752 238 -1183 375 -430 137 -785 249 -787 249 -3 0 -5 1082 -5 2405 0 2284 1
2405 18 2405 9 0 80 7 157 15 77 8 424 39 770 70 347 30 693 62 770 70 77 8
248 24 380 35 132 11 267 24 300 29 33 5 68 9 78 10 16 1 17 -144 17 -2913z
m525 2899 c149 -9 542 -31 875 -50 333 -19 863 -49 1178 -67 l572 -33 0 -1047
c0 -832 -3 -1048 -12 -1048 -7 0 -130 -5 -273 -10 -226 -8 -819 -26 -1505 -45
-354 -10 -1104 -35 -1132 -38 l-28 -4 0 1179 0 1178 28 0 c15 0 149 -7 297
-15z m2625 -2849 l0 -414 -92 -6 c-267 -18 -561 -38 -793 -56 -143 -11 -471
-36 -730 -55 -258 -19 -616 -46 -795 -60 -179 -14 -356 -28 -395 -31 -38 -2
-87 -7 -107 -10 l-38 -4 0 475 c0 261 3 475 8 475 4 0 131 5 282 10 151 5 430
14 620 20 190 6 527 17 750 25 223 8 576 19 785 25 209 6 387 13 395 14 8 2
36 4 63 5 l47 1 0 -414z m0 -1521 c0 -503 1 -918 3 -922 1 -4 -128 -30 -288
-59 -159 -29 -816 -147 -1460 -264 -643 -116 -1178 -212 -1187 -214 -17 -4
-18 52 -18 1070 l0 1074 23 4 c30 7 1262 103 1977 156 244 17 682 52 815 63
22 2 61 4 88 5 l47 2 0 -915z"/>
<path d="M3102 6478 l3 -972 120 -13 c66 -8 197 -27 290 -43 94 -17 179 -30
188 -30 16 0 17 62 15 1013 l-3 1012 -308 3 -307 2 2 -972z"/>
<path d="M2604 7396 c-30 -30 -34 -40 -34 -85 0 -42 5 -56 31 -85 38 -44 87
-56 135 -33 51 25 67 57 62 124 -4 48 -10 61 -37 85 -25 22 -41 28 -77 28 -39
0 -51 -5 -80 -34z"/>
<path d="M3932 6983 c-1 -54 1 -103 6 -110 5 -9 86 -14 285 -19 l277 -7 0 115
0 116 -283 1 -284 2 -1 -98z"/>
<path d="M4168 6505 c-109 -61 -50 -239 74 -222 49 7 75 29 90 79 14 49 -3
111 -37 134 -35 23 -95 27 -127 9z"/>
<path d="M5355 7717 c-18 -18 -38 -51 -44 -72 -7 -27 -11 -202 -11 -525 1
-550 2 -557 74 -614 l38 -31 397 3 c218 1 691 6 1051 10 l655 7 38 24 c21 12
48 42 60 65 22 40 22 48 25 501 3 507 2 518 -59 569 -38 32 -52 33 -529 46
-217 6 -640 20 -940 30 -300 11 -585 20 -633 20 -87 0 -90 -1 -122 -33z"/>
<path d="M7400 5421 l-115 -6 -5 -80 -5 -80 -140 -6 c-153 -6 -178 -14 -195
-62 -13 -38 10 -94 44 -107 15 -5 83 -7 162 -3 l137 6 -7 -51 c-4 -28 -4 -63
0 -78 l7 -27 164 6 c90 4 173 11 183 17 22 12 35 66 27 116 -5 29 -3 34 14 34
32 0 79 53 79 90 0 36 -38 80 -70 80 -18 0 -20 6 -20 68 0 40 -5 73 -12 80
-12 12 -37 13 -248 3z"/>
<path d="M5456 5331 c-102 -7 -110 -9 -132 -35 -19 -22 -24 -38 -24 -87 0 -57
-1 -59 -26 -59 -37 0 -84 -50 -84 -90 0 -33 37 -79 65 -81 8 -1 21 -2 28 -3 8
-1 13 -22 15 -58 3 -48 7 -61 30 -79 26 -20 33 -21 187 -14 222 9 205 1 205
100 l0 82 142 7 c154 8 192 20 208 62 15 38 12 50 -17 85 l-27 32 -153 -6
-152 -5 -3 76 -3 77 -75 1 c-41 1 -124 -2 -184 -5z"/>
<path d="M6860 3105 c-74 -13 -265 -44 -425 -70 -159 -26 -300 -49 -312 -52
-22 -5 -23 -10 -23 -99 0 -52 4 -94 8 -94 14 0 876 150 895 156 14 5 17 18 17
95 0 65 -3 89 -12 88 -7 -1 -74 -12 -148 -24z"/>
</g>
</svg>
