<?xml version="1.0" standalone="no"?>
<!DOCTYPE svg PUBLIC "-//W3C//DTD SVG 20010904//EN"
 "http://www.w3.org/TR/2001/REC-SVG-20010904/DTD/svg10.dtd">
<svg version="1.0" xmlns="http://www.w3.org/2000/svg"
 width="1024.000000pt" height="1024.000000pt" viewBox="0 0 1024.000000 1024.000000"
 preserveAspectRatio="xMidYMid meet">

<g transform="translate(0.000000,1024.000000) scale(0.100000,-0.100000)"
fill="#000000" stroke="none">
<path d="M3147 8430 c-46 -14 -93 -56 -116 -103 l-21 -43 0 -2912 c0 -2606 2
-2917 15 -2950 32 -76 99 -123 189 -131 l61 -6 6 -57 c17 -153 163 -259 341
-245 125 10 199 54 274 166 30 44 44 76 44 98 l0 33 1185 0 c1140 0 1185 -1
1185 -18 0 -80 92 -202 188 -249 49 -24 69 -28 147 -28 71 0 100 5 136 21 95
44 171 140 187 238 l8 41 61 6 c83 8 141 43 176 107 l27 50 0 2918 c0 2817 -1
2920 -19 2959 -22 48 -54 79 -103 100 -33 13 -249 15 -1990 14 -1074 0 -1966
-5 -1981 -9z m2053 -2215 l0 -1985 -975 0 -975 0 0 1985 0 1985 975 0 975 0 0
-1985z m1800 0 l0 -1985 -780 0 -780 0 0 1985 0 1985 780 0 780 0 0 -1985z m0
-2952 l0 -743 -1875 0 -1875 0 0 743 0 742 1875 0 1875 0 0 -742z m-3300 -982
c0 -17 -51 -50 -85 -57 -38 -7 -100 18 -116 47 -9 18 -4 19 96 19 58 0 105 -4
105 -9z m3040 -11 c-15 -27 -62 -50 -105 -50 -26 0 -45 9 -73 35 l-37 34 113
1 c109 0 112 -1 102 -20z"/>
<path d="M3812 6964 c-28 -19 -52 -65 -52 -99 0 -34 24 -80 52 -99 19 -14 75
-16 413 -16 l391 0 34 29 c32 27 35 33 35 86 0 51 -3 59 -33 86 l-32 29 -393
0 c-340 0 -396 -2 -415 -16z"/>
<path d="M4163 6480 c-45 -27 -66 -64 -66 -116 0 -53 24 -91 74 -116 66 -34
138 -12 179 54 25 42 25 71 0 124 -34 70 -120 95 -187 54z"/>
<path d="M5724 6680 c-12 -4 -31 -21 -43 -36 l-21 -27 0 -924 0 -925 34 -34
35 -35 445 3 446 3 27 28 28 27 3 919 c1 589 -1 928 -8 945 -5 14 -24 35 -42
46 -32 19 -50 20 -458 19 -234 0 -435 -4 -446 -9z m546 -301 c0 -33 -5 -70
-11 -82 -32 -63 -107 -76 -161 -28 -29 26 -32 33 -33 92 0 35 1 67 3 72 2 4
48 7 103 7 l99 0 0 -61z m-61 -496 c23 -19 168 -325 201 -424 24 -71 25 -90 4
-158 -33 -111 -153 -190 -270 -178 -179 18 -277 182 -212 354 42 112 167 378
188 401 26 26 60 28 89 5z"/>
<path d="M6280 3205 l0 -85 85 0 85 0 0 85 0 85 -85 0 -85 0 0 -85z"/>
<path d="M6591 3205 l-2 -85 90 0 91 0 0 85 0 85 -89 0 -88 0 -2 -85z"/>
<path d="M6280 2885 l0 -85 85 0 85 0 0 85 0 85 -85 0 -85 0 0 -85z"/>
<path d="M6590 2885 l0 -85 90 0 90 0 0 85 0 85 -90 0 -90 0 0 -85z"/>
</g>
</svg>
